<?xml version="1.0" encoding="UTF-8" standalone="no"?>
<!DOCTYPE svg PUBLIC "-//W3C//DTD SVG 1.1//EN"
 "http://www.w3.org/Graphics/SVG/1.1/DTD/svg11.dtd">
<!-- Generated by graphviz version 2.43.0 (0)
 -->
<!-- Title: service_state_machine Pages: 1 -->
<svg width="966pt" height="626pt"
 viewBox="0.00 0.00 965.62 626.00" xmlns="http://www.w3.org/2000/svg" xmlns:xlink="http://www.w3.org/1999/xlink">
<g id="graph0" class="graph" transform="scale(1 1) rotate(0) translate(4 622)">
<title>service_state_machine</title>
<polygon fill="white" stroke="transparent" points="-4,4 -4,-622 961.62,-622 961.62,4 -4,4"/>
<!-- initial -->
<g id="node1" class="node">
<title>initial</title>
<polygon fill="none" stroke="black" stroke-width="3" points="821.62,-618 735.62,-618 735.62,-582 821.62,-582 821.62,-618"/>
<text text-anchor="middle" x="778.62" y="-593.8" font-family="Times,serif" font-size="24.00">initial</text>
</g>
<!-- starting -->
<g id="node2" class="node">
<title>starting</title>
<polygon fill="none" stroke="black" points="834.62,-531 722.62,-531 722.62,-495 834.62,-495 834.62,-531"/>
<text text-anchor="middle" x="778.62" y="-506.8" font-family="Times,serif" font-size="24.00">starting</text>
</g>
<!-- initial&#45;&gt;starting -->
<g id="edge1" class="edge">
<title>initial&#45;&gt;starting</title>
<path fill="none" stroke="black" d="M778.62,-581.8C778.62,-570.16 778.62,-554.55 778.62,-541.24"/>
<polygon fill="black" stroke="black" points="782.12,-541.18 778.62,-531.18 775.12,-541.18 782.12,-541.18"/>
<text text-anchor="middle" x="796.12" y="-552.8" font-family="Times,serif" font-size="14.00">start</text>
</g>
<!-- running -->
<g id="node3" class="node">
<title>running</title>
<polygon fill="none" stroke="black" points="458.12,-429 345.12,-429 345.12,-393 458.12,-393 458.12,-429"/>
<text text-anchor="middle" x="401.62" y="-404.8" font-family="Times,serif" font-size="24.00">running</text>
</g>
<!-- starting&#45;&gt;running -->
<g id="edge2" class="edge">
<title>starting&#45;&gt;running</title>
<path fill="none" stroke="black" d="M722.58,-497.14C654.7,-479.13 540.48,-448.83 468.18,-429.66"/>
<polygon fill="black" stroke="black" points="468.83,-426.21 458.26,-427.03 467.03,-432.97 468.83,-426.21"/>
<text text-anchor="middle" x="680.12" y="-465.8" font-family="Times,serif" font-size="14.00">okay wait</text>
<text text-anchor="middle" x="680.12" y="-450.8" font-family="Times,serif" font-size="14.00">elapsed</text>
</g>
<!-- exited -->
<g id="node8" class="node">
<title>exited</title>
<polygon fill="none" stroke="black" points="824.12,-327 733.12,-327 733.12,-291 824.12,-291 824.12,-327"/>
<text text-anchor="middle" x="778.62" y="-302.8" font-family="Times,serif" font-size="24.00">exited</text>
</g>
<!-- starting&#45;&gt;exited -->
<g id="edge11" class="edge">
<title>starting&#45;&gt;exited</title>
<path fill="none" stroke="black" d="M778.62,-494.78C778.62,-459.67 778.62,-379.59 778.62,-337.31"/>
<polygon fill="black" stroke="black" points="782.12,-337.18 778.62,-327.18 775.12,-337.18 782.12,-337.18"/>
<text text-anchor="middle" x="801.12" y="-407.3" font-family="Times,serif" font-size="14.00">exited</text>
</g>
<!-- terminating -->
<g id="node4" class="node">
<title>terminating</title>
<polygon fill="none" stroke="black" points="348.62,-327 188.62,-327 188.62,-291 348.62,-291 348.62,-327"/>
<text text-anchor="middle" x="268.62" y="-302.8" font-family="Times,serif" font-size="24.00">terminating</text>
</g>
<!-- running&#45;&gt;terminating -->
<g id="edge3" class="edge">
<title>running&#45;&gt;terminating</title>
<path fill="none" stroke="black" d="M359.74,-392.93C349.98,-387.93 340,-381.92 331.62,-375 318.66,-364.3 320.1,-357.26 308.62,-345 305.08,-341.23 301.17,-337.43 297.23,-333.79"/>
<polygon fill="black" stroke="black" points="299.47,-331.11 289.68,-327.06 294.81,-336.33 299.47,-331.11"/>
<text text-anchor="middle" x="347.12" y="-356.3" font-family="Times,serif" font-size="14.00">stop</text>
</g>
<!-- running&#45;&gt;terminating -->
<g id="edge4" class="edge">
<title>running&#45;&gt;terminating</title>
<path fill="none" stroke="black" d="M345.03,-409C287.22,-406.63 203.1,-399.02 182.62,-375 173.96,-364.86 175.17,-356.06 182.62,-345 185.63,-340.52 189.33,-336.61 193.48,-333.2"/>
<polygon fill="black" stroke="black" points="195.8,-335.85 201.97,-327.24 191.77,-330.12 195.8,-335.85"/>
<text text-anchor="middle" x="243.62" y="-363.8" font-family="Times,serif" font-size="14.00">check failed</text>
<text text-anchor="middle" x="243.62" y="-348.8" font-family="Times,serif" font-size="14.00">(action &quot;restart&quot;)</text>
</g>
<!-- backoff -->
<g id="node7" class="node">
<title>backoff</title>
<polygon fill="none" stroke="black" points="490.12,-123 385.12,-123 385.12,-87 490.12,-87 490.12,-123"/>
<text text-anchor="middle" x="437.62" y="-98.8" font-family="Times,serif" font-size="24.00">backoff</text>
</g>
<!-- running&#45;&gt;backoff -->
<g id="edge17" class="edge">
<title>running&#45;&gt;backoff</title>
<path fill="none" stroke="black" d="M403.43,-392.87C405.29,-379.43 408.9,-360.46 415.62,-345 431.13,-309.26 453.97,-310.18 465.62,-273 480.66,-224.95 463.04,-166.44 449.73,-132.98"/>
<polygon fill="black" stroke="black" points="452.84,-131.33 445.78,-123.43 446.37,-134.01 452.84,-131.33"/>
<text text-anchor="middle" x="531.62" y="-261.8" font-family="Times,serif" font-size="14.00">exited</text>
<text text-anchor="middle" x="531.62" y="-246.8" font-family="Times,serif" font-size="14.00">(action &quot;restart&quot;)</text>
</g>
<!-- running&#45;&gt;exited -->
<g id="edge15" class="edge">
<title>running&#45;&gt;exited</title>
<path fill="none" stroke="black" d="M458.26,-401.9C493.15,-396.13 538.52,-387.23 577.62,-375 609.53,-365.02 614.95,-355.76 646.62,-345 677.85,-334.39 686.74,-335.5 718.62,-327 720.05,-326.62 721.51,-326.23 722.98,-325.83"/>
<polygon fill="black" stroke="black" points="724.07,-329.16 732.79,-323.14 722.22,-322.41 724.07,-329.16"/>
<text text-anchor="middle" x="705.62" y="-363.8" font-family="Times,serif" font-size="14.00">exited</text>
<text text-anchor="middle" x="705.62" y="-348.8" font-family="Times,serif" font-size="14.00">(action &quot;ignore&quot;)</text>
</g>
<!-- running&#45;&gt;exited -->
<g id="edge16" class="edge">
<title>running&#45;&gt;exited</title>
<path fill="none" stroke="black" d="M407.31,-392.76C413.38,-375.51 423.26,-350.72 431.62,-345 457.98,-326.95 687.12,-332.39 718.62,-327 720.08,-326.75 721.57,-326.48 723.06,-326.18"/>
<polygon fill="black" stroke="black" points="723.96,-329.57 732.98,-324.01 722.47,-322.73 723.96,-329.57"/>
<text text-anchor="middle" x="502.62" y="-363.8" font-family="Times,serif" font-size="14.00">exited</text>
<text text-anchor="middle" x="502.62" y="-348.8" font-family="Times,serif" font-size="14.00">(action &quot;shutdown&quot;)</text>
</g>
<!-- killing -->
<g id="node5" class="node">
<title>killing</title>
<polygon fill="none" stroke="black" points="191.62,-225 99.62,-225 99.62,-189 191.62,-189 191.62,-225"/>
<text text-anchor="middle" x="145.62" y="-200.8" font-family="Times,serif" font-size="24.00">killing</text>
</g>
<!-- terminating&#45;&gt;killing -->
<g id="edge5" class="edge">
<title>terminating&#45;&gt;killing</title>
<path fill="none" stroke="black" d="M188.57,-293.87C177.28,-288.86 166.77,-282.11 158.62,-273 149.5,-262.82 146.05,-248.09 144.96,-235.24"/>
<polygon fill="black" stroke="black" points="148.45,-234.86 144.53,-225.01 141.45,-235.15 148.45,-234.86"/>
<text text-anchor="middle" x="212.62" y="-261.8" font-family="Times,serif" font-size="14.00">terminate time</text>
<text text-anchor="middle" x="212.62" y="-246.8" font-family="Times,serif" font-size="14.00">elapsed</text>
</g>
<!-- stopped -->
<g id="node6" class="node">
<title>stopped</title>
<polygon fill="none" stroke="black" points="414.62,-36 302.62,-36 302.62,0 414.62,0 414.62,-36"/>
<text text-anchor="middle" x="358.62" y="-11.8" font-family="Times,serif" font-size="24.00">stopped</text>
</g>
<!-- terminating&#45;&gt;stopped -->
<g id="edge6" class="edge">
<title>terminating&#45;&gt;stopped</title>
<path fill="none" stroke="black" d="M268.4,-290.93C268.13,-254.12 268.53,-168.42 277.62,-141 289.92,-103.87 316.69,-67.3 336.1,-44.03"/>
<polygon fill="black" stroke="black" points="338.8,-46.26 342.62,-36.38 333.47,-41.72 338.8,-46.26"/>
<text text-anchor="middle" x="333.12" y="-159.8" font-family="Times,serif" font-size="14.00">exited</text>
<text text-anchor="middle" x="333.12" y="-144.8" font-family="Times,serif" font-size="14.00">(not restarting)</text>
</g>
<!-- terminating&#45;&gt;backoff -->
<g id="edge8" class="edge">
<title>terminating&#45;&gt;backoff</title>
<path fill="none" stroke="black" d="M282.06,-290.89C286.25,-285.3 290.78,-278.99 294.62,-273 317.58,-237.16 308.1,-216.47 340.62,-189 359.3,-173.22 373.13,-185.79 392.62,-171 405.99,-160.85 416.85,-145.56 424.56,-132.36"/>
<polygon fill="black" stroke="black" points="427.83,-133.67 429.6,-123.22 421.7,-130.29 427.83,-133.67"/>
<text text-anchor="middle" x="382.12" y="-210.8" font-family="Times,serif" font-size="14.00">exited</text>
<text text-anchor="middle" x="382.12" y="-195.8" font-family="Times,serif" font-size="14.00">(restarting)</text>
</g>
<!-- killing&#45;&gt;stopped -->
<g id="edge7" class="edge">
<title>killing&#45;&gt;stopped</title>
<path fill="none" stroke="black" d="M99.55,-189.54C48.09,-168.57 -23.99,-129.88 8.62,-87 42.25,-42.77 200.82,-27.14 292.57,-21.74"/>
<polygon fill="black" stroke="black" points="292.81,-25.23 302.6,-21.17 292.42,-18.24 292.81,-25.23"/>
<text text-anchor="middle" x="64.12" y="-108.8" font-family="Times,serif" font-size="14.00">exited</text>
<text text-anchor="middle" x="64.12" y="-93.8" font-family="Times,serif" font-size="14.00">(not restarting)</text>
</g>
<!-- killing&#45;&gt;stopped -->
<g id="edge20" class="edge">
<title>killing&#45;&gt;stopped</title>
<path fill="none" stroke="black" d="M145.46,-188.86C145.98,-175.24 148.17,-156.04 155.62,-141 170.39,-111.14 181.23,-107.35 207.62,-87 233.9,-66.72 267.18,-50.91 295.81,-39.65"/>
<polygon fill="black" stroke="black" points="297.24,-42.85 305.32,-36.01 294.73,-36.31 297.24,-42.85"/>
<text text-anchor="middle" x="237.12" y="-108.8" font-family="Times,serif" font-size="14.00">kill time</text>
<text text-anchor="middle" x="237.12" y="-93.8" font-family="Times,serif" font-size="14.00">elapsed</text>
</g>
<!-- killing&#45;&gt;backoff -->
<g id="edge9" class="edge">
<title>killing&#45;&gt;backoff</title>
<path fill="none" stroke="black" d="M148.7,-188.97C152.38,-173.85 160.11,-152.44 175.62,-141 206.31,-118.36 307.59,-110.36 374.87,-107.54"/>
<polygon fill="black" stroke="black" points="375.09,-111.03 384.94,-107.15 374.81,-104.04 375.09,-111.03"/>
<text text-anchor="middle" x="217.12" y="-159.8" font-family="Times,serif" font-size="14.00">exited</text>
<text text-anchor="middle" x="217.12" y="-144.8" font-family="Times,serif" font-size="14.00">(restarting)</text>
</g>
<!-- stopped&#45;&gt;starting -->
<g id="edge12" class="edge">
<title>stopped&#45;&gt;starting</title>
<path fill="none" stroke="black" d="M414.76,-21.62C557.41,-29.04 922.62,-53 922.62,-104 922.62,-412 922.62,-412 922.62,-412 922.62,-453.25 882.26,-478.85 844.28,-493.81"/>
<polygon fill="black" stroke="black" points="842.85,-490.61 834.7,-497.39 845.29,-497.17 842.85,-490.61"/>
<text text-anchor="middle" x="940.12" y="-254.3" font-family="Times,serif" font-size="14.00">start</text>
</g>
<!-- backoff&#45;&gt;starting -->
<g id="edge13" class="edge">
<title>backoff&#45;&gt;starting</title>
<path fill="none" stroke="black" d="M457.83,-123.15C488.15,-148.95 547.16,-199.37 596.62,-243 638.38,-279.85 645.11,-293.51 689.62,-327 701.74,-336.12 709.08,-333.21 718.62,-345 752.33,-386.68 767.93,-448.85 774.47,-484.4"/>
<polygon fill="black" stroke="black" points="771.07,-485.27 776.21,-494.53 777.96,-484.08 771.07,-485.27"/>
<text text-anchor="middle" x="707.12" y="-305.3" font-family="Times,serif" font-size="14.00">start</text>
</g>
<!-- backoff&#45;&gt;running -->
<g id="edge19" class="edge">
<title>backoff&#45;&gt;running</title>
<path fill="none" stroke="black" d="M440.74,-123.06C444.33,-148.24 447.03,-195.52 423.62,-225 408.93,-243.5 387.2,-223.68 373.62,-243 365.95,-253.91 372.27,-259.73 373.62,-273 377.52,-311.59 387.46,-355.38 394.38,-382.85"/>
<polygon fill="black" stroke="black" points="391.07,-384.06 396.95,-392.87 397.85,-382.31 391.07,-384.06"/>
<text text-anchor="middle" x="417.62" y="-261.8" font-family="Times,serif" font-size="14.00">backoff time</text>
<text text-anchor="middle" x="417.62" y="-246.8" font-family="Times,serif" font-size="14.00">elapsed</text>
</g>
<!-- backoff&#45;&gt;stopped -->
<g id="edge18" class="edge">
<title>backoff&#45;&gt;stopped</title>
<path fill="none" stroke="black" d="M421.63,-86.8C410.06,-74.36 394.27,-57.36 381.39,-43.5"/>
<polygon fill="black" stroke="black" points="383.95,-41.12 374.58,-36.18 378.82,-45.88 383.95,-41.12"/>
<text text-anchor="middle" x="418.12" y="-57.8" font-family="Times,serif" font-size="14.00">stop</text>
</g>
<!-- exited&#45;&gt;starting -->
<g id="edge14" class="edge">
<title>exited&#45;&gt;starting</title>
<path fill="none" stroke="black" d="M793.63,-327.26C811.54,-350 837.86,-391.5 827.62,-429 821.89,-449.97 809.35,-471.04 798.39,-486.7"/>
<polygon fill="black" stroke="black" points="795.55,-484.66 792.52,-494.81 801.22,-488.76 795.55,-484.66"/>
<text text-anchor="middle" x="847.12" y="-407.3" font-family="Times,serif" font-size="14.00">start</text>
</g>
<!-- exited&#45;&gt;stopped -->
<g id="edge10" class="edge">
<title>exited&#45;&gt;stopped</title>
<path fill="none" stroke="black" d="M805.44,-290.95C838.54,-267.76 887.46,-225.02 861.62,-189 760.64,-48.29 536.94,-22.55 425.05,-18.82"/>
<polygon fill="black" stroke="black" points="425,-15.31 414.91,-18.53 424.8,-22.31 425,-15.31"/>
<text text-anchor="middle" x="860.12" y="-152.3" font-family="Times,serif" font-size="14.00">stop</text>
</g>
<!-- exited&#45;&gt;backoff -->
<g id="edge21" class="edge">
<title>exited&#45;&gt;backoff</title>
<path fill="none" stroke="black" d="M770.36,-290.72C750.34,-249 700.38,-145.81 693.62,-141 663.51,-119.6 566.19,-111.25 500.6,-108.01"/>
<polygon fill="black" stroke="black" points="500.51,-104.51 490.36,-107.54 500.18,-111.5 500.51,-104.51"/>
<text text-anchor="middle" x="798.62" y="-210.8" font-family="Times,serif" font-size="14.00">check failed</text>
<text text-anchor="middle" x="798.62" y="-195.8" font-family="Times,serif" font-size="14.00">(action &quot;restart&quot;)</text>
</g>
</g>
</svg>
