<?xml version="1.0" encoding="UTF-8" standalone="no"?>
<!DOCTYPE svg PUBLIC "-//W3C//DTD SVG 1.1//EN"
 "http://www.w3.org/Graphics/SVG/1.1/DTD/svg11.dtd">
<!-- Generated by graphviz version 12.1.1 (20240910.0053)
 -->
<!-- Title: service_state_machine Pages: 1 -->
<svg width="789pt" height="641pt"
 viewBox="0.00 0.00 788.94 641.00" xmlns="http://www.w3.org/2000/svg" xmlns:xlink="http://www.w3.org/1999/xlink">
<g id="graph0" class="graph" transform="scale(1 1) rotate(0) translate(4 637)">
<title>service_state_machine</title>
<polygon fill="white" stroke="none" points="-4,4 -4,-637 784.94,-637 784.94,4 -4,4"/>
<!-- initial -->
<g id="node1" class="node">
<title>initial</title>
<polygon fill="none" stroke="black" stroke-width="3" points="321.81,-633 249.56,-633 249.56,-597 321.81,-597 321.81,-633"/>
<text text-anchor="middle" x="285.69" y="-605.7" font-family="Times,serif" font-size="24.00">initial</text>
</g>
<!-- starting -->
<g id="node2" class="node">
<title>starting</title>
<polygon fill="none" stroke="black" points="329.69,-544.5 241.69,-544.5 241.69,-508.5 329.69,-508.5 329.69,-544.5"/>
<text text-anchor="middle" x="285.69" y="-517.2" font-family="Times,serif" font-size="24.00">starting</text>
</g>
<!-- initial&#45;&gt;starting -->
<g id="edge1" class="edge">
<title>initial&#45;&gt;starting</title>
<path fill="none" stroke="black" d="M285.69,-595.66C285.69,-584.19 285.69,-569.18 285.69,-556.16"/>
<polygon fill="black" stroke="black" points="289.19,-556.45 285.69,-546.45 282.19,-556.45 289.19,-556.45"/>
<text text-anchor="middle" x="297.31" y="-565.7" font-family="Times,serif" font-size="14.00">start</text>
</g>
<!-- backoff -->
<g id="node3" class="node">
<title>backoff</title>
<polygon fill="none" stroke="black" points="490.69,-456 402.69,-456 402.69,-420 490.69,-420 490.69,-456"/>
<text text-anchor="middle" x="446.69" y="-428.7" font-family="Times,serif" font-size="24.00">backoff</text>
</g>
<!-- starting&#45;&gt;backoff -->
<g id="edge2" class="edge">
<title>starting&#45;&gt;backoff</title>
<path fill="none" stroke="black" d="M322.94,-508.02C334.19,-502.57 346.52,-496.44 357.69,-490.5 374.37,-481.63 392.47,-471.3 407.96,-462.22"/>
<polygon fill="black" stroke="black" points="409.58,-465.33 416.42,-457.24 406.03,-459.3 409.58,-465.33"/>
<text text-anchor="middle" x="415.89" y="-477.2" font-family="Times,serif" font-size="14.00">autorestart</text>
</g>
<!-- running -->
<g id="node4" class="node">
<title>running</title>
<polygon fill="none" stroke="black" points="416.19,-351 325.19,-351 325.19,-315 416.19,-315 416.19,-351"/>
<text text-anchor="middle" x="370.69" y="-323.7" font-family="Times,serif" font-size="24.00">running</text>
</g>
<!-- starting&#45;&gt;running -->
<g id="edge3" class="edge">
<title>starting&#45;&gt;running</title>
<path fill="none" stroke="black" d="M288.6,-508.45C294.28,-478.51 308.78,-415.24 336.69,-369 338.61,-365.81 340.88,-362.68 343.32,-359.69"/>
<polygon fill="black" stroke="black" points="345.86,-362.09 349.94,-352.32 340.65,-357.41 345.86,-362.09"/>
<text text-anchor="middle" x="338.96" y="-441.2" font-family="Times,serif" font-size="14.00">okay wait</text>
<text text-anchor="middle" x="338.96" y="-424.7" font-family="Times,serif" font-size="14.00">elapsed</text>
</g>
<!-- terminating -->
<g id="node5" class="node">
<title>terminating</title>
<polygon fill="none" stroke="black" points="564.19,-246 437.19,-246 437.19,-210 564.19,-210 564.19,-246"/>
<text text-anchor="middle" x="500.69" y="-218.7" font-family="Times,serif" font-size="24.00">terminating</text>
</g>
<!-- starting&#45;&gt;terminating -->
<g id="edge4" class="edge">
<title>starting&#45;&gt;terminating</title>
<path fill="none" stroke="black" d="M265.41,-508.23C224.28,-471.09 138.61,-381.58 183.69,-315 195.76,-297.16 211.2,-309.58 228.69,-297 244.3,-285.76 239.85,-273.3 256.69,-264 284.98,-248.36 364.88,-238.99 425.6,-233.94"/>
<polygon fill="black" stroke="black" points="425.51,-237.46 435.19,-233.17 424.95,-230.48 425.51,-237.46"/>
<text text-anchor="middle" x="231.18" y="-388.7" font-family="Times,serif" font-size="14.00">stop (before</text>
<text text-anchor="middle" x="231.18" y="-372.2" font-family="Times,serif" font-size="14.00">okay wait elapses)</text>
</g>
<!-- exited -->
<g id="node8" class="node">
<title>exited</title>
<polygon fill="none" stroke="black" points="138.94,-246 64.44,-246 64.44,-210 138.94,-210 138.94,-246"/>
<text text-anchor="middle" x="101.69" y="-218.7" font-family="Times,serif" font-size="24.00">exited</text>
</g>
<!-- starting&#45;&gt;exited -->
<g id="edge13" class="edge">
<title>starting&#45;&gt;exited</title>
<path fill="none" stroke="black" d="M241.3,-524C180.61,-521.12 75.81,-512.97 45.69,-490.5 0,-456.42 -5.86,-425.01 4.69,-369 13.96,-319.77 13.71,-302.57 45.69,-264 48.94,-260.07 52.76,-256.45 56.85,-253.15"/>
<polygon fill="black" stroke="black" points="58.84,-256.03 64.88,-247.33 54.73,-250.36 58.84,-256.03"/>
<text text-anchor="middle" x="21.19" y="-380.45" font-family="Times,serif" font-size="14.00">exited</text>
</g>
<!-- backoff&#45;&gt;starting -->
<g id="edge14" class="edge">
<title>backoff&#45;&gt;starting</title>
<path fill="none" stroke="black" d="M402.23,-446.25C379.45,-451.44 352.03,-460.04 330.44,-474 320.14,-480.66 310.86,-490.35 303.45,-499.53"/>
<polygon fill="black" stroke="black" points="300.88,-497.13 297.61,-507.21 306.45,-501.37 300.88,-497.13"/>
<text text-anchor="middle" x="342.06" y="-477.2" font-family="Times,serif" font-size="14.00">start</text>
</g>
<!-- backoff&#45;&gt;running -->
<g id="edge21" class="edge">
<title>backoff&#45;&gt;running</title>
<path fill="none" stroke="black" d="M448.26,-419.79C448.71,-405.01 447.15,-383.82 436.69,-369 433.7,-364.77 430.05,-361.01 426,-357.68"/>
<polygon fill="black" stroke="black" points="428.05,-354.84 417.86,-351.91 424,-360.55 428.05,-354.84"/>
<text text-anchor="middle" x="482.52" y="-388.7" font-family="Times,serif" font-size="14.00">backoff time</text>
<text text-anchor="middle" x="482.52" y="-372.2" font-family="Times,serif" font-size="14.00">elapsed</text>
</g>
<!-- stopped -->
<g id="node7" class="node">
<title>stopped</title>
<polygon fill="none" stroke="black" points="632.81,-36 542.56,-36 542.56,0 632.81,0 632.81,-36"/>
<text text-anchor="middle" x="587.69" y="-8.7" font-family="Times,serif" font-size="24.00">stopped</text>
</g>
<!-- backoff&#45;&gt;stopped -->
<g id="edge20" class="edge">
<title>backoff&#45;&gt;stopped</title>
<path fill="none" stroke="black" d="M491.09,-428.9C565.35,-414.07 706.69,-379.82 706.69,-334 706.69,-334 706.69,-334 706.69,-122 706.69,-89.48 702.85,-76.83 679.69,-54 669.7,-44.16 656.66,-37.03 643.55,-31.88"/>
<polygon fill="black" stroke="black" points="645.11,-28.72 634.51,-28.68 642.77,-35.32 645.11,-28.72"/>
<text text-anchor="middle" x="717.94" y="-222.95" font-family="Times,serif" font-size="14.00">stop</text>
</g>
<!-- running&#45;&gt;backoff -->
<g id="edge19" class="edge">
<title>running&#45;&gt;backoff</title>
<path fill="none" stroke="black" d="M355.54,-351.4C344.85,-365.9 334.21,-386.6 345.19,-402 355.98,-417.15 373.79,-425.8 391.49,-430.73"/>
<polygon fill="black" stroke="black" points="390.43,-434.07 400.97,-432.98 392.05,-427.26 390.43,-434.07"/>
<text text-anchor="middle" x="390.94" y="-388.7" font-family="Times,serif" font-size="14.00">exited</text>
<text text-anchor="middle" x="390.94" y="-372.2" font-family="Times,serif" font-size="14.00">(action &quot;restart&quot;)</text>
</g>
<!-- running&#45;&gt;terminating -->
<g id="edge5" class="edge">
<title>running&#45;&gt;terminating</title>
<path fill="none" stroke="black" d="M416.44,-328.33C439.56,-324.15 466.33,-315.35 483.69,-297 493.65,-286.47 498.02,-271.02 499.85,-257.5"/>
<polygon fill="black" stroke="black" points="503.31,-258.08 500.74,-247.81 496.34,-257.45 503.31,-258.08"/>
<text text-anchor="middle" x="509.82" y="-275.45" font-family="Times,serif" font-size="14.00">stop</text>
</g>
<!-- running&#45;&gt;terminating -->
<g id="edge6" class="edge">
<title>running&#45;&gt;terminating</title>
<path fill="none" stroke="black" d="M370.64,-314.69C371.54,-299.45 375.25,-277.6 388.19,-264 398.41,-253.25 411.87,-245.79 425.91,-240.61"/>
<polygon fill="black" stroke="black" points="426.86,-243.98 435.28,-237.54 424.69,-237.32 426.86,-243.98"/>
<text text-anchor="middle" x="433.94" y="-283.7" font-family="Times,serif" font-size="14.00">check failed</text>
<text text-anchor="middle" x="433.94" y="-267.2" font-family="Times,serif" font-size="14.00">(action &quot;restart&quot;)</text>
</g>
<!-- running&#45;&gt;exited -->
<g id="edge17" class="edge">
<title>running&#45;&gt;exited</title>
<path fill="none" stroke="black" d="M324.97,-317.92C309.18,-312.31 291.64,-305.22 276.44,-297 254.7,-285.25 253.95,-274.73 231.69,-264 206.13,-251.68 175.57,-243.17 150.51,-237.63"/>
<polygon fill="black" stroke="black" points="151.4,-234.24 140.9,-235.61 149.96,-241.09 151.4,-234.24"/>
<text text-anchor="middle" x="322.56" y="-283.7" font-family="Times,serif" font-size="14.00">exited</text>
<text text-anchor="middle" x="322.56" y="-267.2" font-family="Times,serif" font-size="14.00">(action &quot;ignore&quot;)</text>
</g>
<!-- running&#45;&gt;exited -->
<g id="edge18" class="edge">
<title>running&#45;&gt;exited</title>
<path fill="none" stroke="black" d="M324.83,-317.88C320.41,-316.8 315.98,-315.81 311.69,-315 269.09,-306.96 150.09,-325.51 117.44,-297 106.31,-287.29 102.21,-271.41 100.97,-257.44"/>
<polygon fill="black" stroke="black" points="104.48,-257.69 100.56,-247.84 97.49,-257.98 104.48,-257.69"/>
<text text-anchor="middle" x="172.56" y="-283.7" font-family="Times,serif" font-size="14.00">exited</text>
<text text-anchor="middle" x="172.56" y="-267.2" font-family="Times,serif" font-size="14.00">(action &quot;shutdown&quot;)</text>
</g>
<!-- terminating&#45;&gt;backoff -->
<g id="edge10" class="edge">
<title>terminating&#45;&gt;backoff</title>
<path fill="none" stroke="black" d="M515.65,-246.43C519.33,-251.74 522.77,-257.81 524.69,-264 542.85,-322.6 555.38,-350.73 521.69,-402 516.58,-409.77 509.27,-415.85 501.19,-420.59"/>
<polygon fill="black" stroke="black" points="499.73,-417.41 492.39,-425.06 502.9,-423.65 499.73,-417.41"/>
<text text-anchor="middle" x="572.79" y="-336.2" font-family="Times,serif" font-size="14.00">exited</text>
<text text-anchor="middle" x="572.79" y="-319.7" font-family="Times,serif" font-size="14.00">(restarting)</text>
</g>
<!-- killing -->
<g id="node6" class="node">
<title>killing</title>
<polygon fill="none" stroke="black" points="674.19,-141 595.19,-141 595.19,-105 674.19,-105 674.19,-141"/>
<text text-anchor="middle" x="634.69" y="-113.7" font-family="Times,serif" font-size="24.00">killing</text>
</g>
<!-- terminating&#45;&gt;killing -->
<g id="edge7" class="edge">
<title>terminating&#45;&gt;killing</title>
<path fill="none" stroke="black" d="M506.08,-209.64C511.65,-194.35 521.77,-172.48 537.44,-159 541.45,-155.55 562.44,-147.83 583.9,-140.53"/>
<polygon fill="black" stroke="black" points="584.94,-143.87 593.31,-137.36 582.71,-137.24 584.94,-143.87"/>
<text text-anchor="middle" x="577.56" y="-178.7" font-family="Times,serif" font-size="14.00">terminate time</text>
<text text-anchor="middle" x="577.56" y="-162.2" font-family="Times,serif" font-size="14.00">elapsed</text>
</g>
<!-- terminating&#45;&gt;stopped -->
<g id="edge8" class="edge">
<title>terminating&#45;&gt;stopped</title>
<path fill="none" stroke="black" d="M497.72,-209.53C492.96,-175.2 487.72,-98.4 526.69,-54 530.27,-49.91 534.46,-46.19 538.92,-42.83"/>
<polygon fill="black" stroke="black" points="540.81,-45.78 547.13,-37.27 536.89,-39.98 540.81,-45.78"/>
<text text-anchor="middle" x="541.17" y="-126.2" font-family="Times,serif" font-size="14.00">exited</text>
<text text-anchor="middle" x="541.17" y="-109.7" font-family="Times,serif" font-size="14.00">(not restarting)</text>
</g>
<!-- killing&#45;&gt;backoff -->
<g id="edge11" class="edge">
<title>killing&#45;&gt;backoff</title>
<path fill="none" stroke="black" d="M634.2,-141.48C632.66,-188.21 626.67,-314.98 606.69,-351 585.17,-389.78 539.02,-411.9 501.78,-423.97"/>
<polygon fill="black" stroke="black" points="501.04,-420.54 492.5,-426.81 503.08,-427.23 501.04,-420.54"/>
<text text-anchor="middle" x="655.65" y="-283.7" font-family="Times,serif" font-size="14.00">exited</text>
<text text-anchor="middle" x="655.65" y="-267.2" font-family="Times,serif" font-size="14.00">(restarting)</text>
</g>
<!-- killing&#45;&gt;stopped -->
<g id="edge9" class="edge">
<title>killing&#45;&gt;stopped</title>
<path fill="none" stroke="black" d="M594.79,-108.92C568.48,-100.1 538.53,-89.62 536.69,-87 528.24,-75.01 529.85,-66.98 536.69,-54 538.63,-50.32 541.15,-46.94 544.03,-43.87"/>
<polygon fill="black" stroke="black" points="546.1,-46.73 551.23,-37.46 541.44,-41.5 546.1,-46.73"/>
<text text-anchor="middle" x="577.19" y="-73.7" font-family="Times,serif" font-size="14.00">exited</text>
<text text-anchor="middle" x="577.19" y="-57.2" font-family="Times,serif" font-size="14.00">(not restarting)</text>
</g>
<!-- killing&#45;&gt;stopped -->
<g id="edge22" class="edge">
<title>killing&#45;&gt;stopped</title>
<path fill="none" stroke="black" d="M632.62,-104.73C630.4,-90.5 626.01,-70.11 617.69,-54 616.17,-51.07 614.37,-48.17 612.4,-45.37"/>
<polygon fill="black" stroke="black" points="615.18,-43.24 606.25,-37.54 609.67,-47.57 615.18,-43.24"/>
<text text-anchor="middle" x="652.28" y="-73.7" font-family="Times,serif" font-size="14.00">kill time</text>
<text text-anchor="middle" x="652.28" y="-57.2" font-family="Times,serif" font-size="14.00">elapsed</text>
</g>
<!-- stopped&#45;&gt;starting -->
<g id="edge15" class="edge">
<title>stopped&#45;&gt;starting</title>
<path fill="none" stroke="black" d="M633.24,-26.4C683.6,-37.47 757.69,-63.68 757.69,-122 757.69,-439 757.69,-439 757.69,-439 757.69,-480.91 466.08,-510.38 341.28,-521.07"/>
<polygon fill="black" stroke="black" points="341.27,-517.56 331.6,-521.89 341.86,-524.53 341.27,-517.56"/>
<text text-anchor="middle" x="769.31" y="-275.45" font-family="Times,serif" font-size="14.00">start</text>
</g>
<!-- exited&#45;&gt;starting -->
<g id="edge16" class="edge">
<title>exited&#45;&gt;starting</title>
<path fill="none" stroke="black" d="M93.21,-246.41C90.95,-251.9 88.83,-258.09 87.69,-264 84.91,-278.4 85.23,-282.54 87.69,-297 89.72,-308.97 152.24,-487.31 155.69,-490.5 175.69,-509.03 204.45,-517.94 229.84,-522.15"/>
<polygon fill="black" stroke="black" points="229.33,-525.61 239.72,-523.56 230.31,-518.68 229.33,-525.61"/>
<text text-anchor="middle" x="134.29" y="-380.45" font-family="Times,serif" font-size="14.00">start</text>
</g>
<!-- exited&#45;&gt;backoff -->
<g id="edge23" class="edge">
<title>exited&#45;&gt;backoff</title>
<path fill="none" stroke="black" d="M95.62,-246.42C91.66,-261.13 88.85,-282.11 98.69,-297 145.26,-367.52 197.48,-334.62 274.69,-369 303.2,-381.7 307.92,-389.88 336.69,-402 354.2,-409.38 373.83,-416.09 391.61,-421.62"/>
<polygon fill="black" stroke="black" points="390.37,-424.9 400.95,-424.46 392.41,-418.2 390.37,-424.9"/>
<text text-anchor="middle" x="250.84" y="-336.2" font-family="Times,serif" font-size="14.00">check failed</text>
<text text-anchor="middle" x="250.84" y="-319.7" font-family="Times,serif" font-size="14.00">(action &quot;restart&quot;)</text>
</g>
<!-- exited&#45;&gt;stopped -->
<g id="edge12" class="edge">
<title>exited&#45;&gt;stopped</title>
<path fill="none" stroke="black" d="M139.31,-210.64C210.4,-179.76 369.35,-110.89 503.69,-54 513.94,-49.66 524.92,-45.05 535.45,-40.66"/>
<polygon fill="black" stroke="black" points="536.49,-44.01 544.38,-36.93 533.8,-37.55 536.49,-44.01"/>
<text text-anchor="middle" x="391.97" y="-117.95" font-family="Times,serif" font-size="14.00">stop</text>
</g>
</g>
</svg>
