<?xml version="1.0" encoding="UTF-8" standalone="no"?>
<!DOCTYPE svg PUBLIC "-//W3C//DTD SVG 1.1//EN"
 "http://www.w3.org/Graphics/SVG/1.1/DTD/svg11.dtd">
<!-- Generated by graphviz version 2.43.0 (0)
 -->
<!-- Title: service_state_machine Pages: 1 -->
<svg width="1036pt" height="626pt"
 viewBox="0.00 0.00 1035.54 626.00" xmlns="http://www.w3.org/2000/svg" xmlns:xlink="http://www.w3.org/1999/xlink">
<g id="graph0" class="graph" transform="scale(1 1) rotate(0) translate(4 622)">
<title>service_state_machine</title>
<polygon fill="white" stroke="transparent" points="-4,4 -4,-622 1031.54,-622 1031.54,4 -4,4"/>
<!-- initial -->
<g id="node1" class="node">
<title>initial</title>
<polygon fill="none" stroke="black" stroke-width="3" points="891.54,-618 805.54,-618 805.54,-582 891.54,-582 891.54,-618"/>
<text text-anchor="middle" x="848.54" y="-593.8" font-family="Times,serif" font-size="24.00">initial</text>
</g>
<!-- starting -->
<g id="node2" class="node">
<title>starting</title>
<polygon fill="none" stroke="black" points="904.54,-531 792.54,-531 792.54,-495 904.54,-495 904.54,-531"/>
<text text-anchor="middle" x="848.54" y="-506.8" font-family="Times,serif" font-size="24.00">starting</text>
</g>
<!-- initial&#45;&gt;starting -->
<g id="edge1" class="edge">
<title>initial&#45;&gt;starting</title>
<path fill="none" stroke="black" d="M848.54,-581.8C848.54,-570.16 848.54,-554.55 848.54,-541.24"/>
<polygon fill="black" stroke="black" points="852.04,-541.18 848.54,-531.18 845.04,-541.18 852.04,-541.18"/>
<text text-anchor="middle" x="866.04" y="-552.8" font-family="Times,serif" font-size="14.00">start</text>
</g>
<!-- running -->
<g id="node3" class="node">
<title>running</title>
<polygon fill="none" stroke="black" points="618.04,-429 505.04,-429 505.04,-393 618.04,-393 618.04,-429"/>
<text text-anchor="middle" x="561.54" y="-404.8" font-family="Times,serif" font-size="24.00">running</text>
</g>
<!-- starting&#45;&gt;running -->
<g id="edge2" class="edge">
<title>starting&#45;&gt;running</title>
<path fill="none" stroke="black" d="M799.53,-494.92C749.79,-477.59 672.79,-450.76 619.93,-432.34"/>
<polygon fill="black" stroke="black" points="620.95,-428.99 610.35,-429.01 618.64,-435.6 620.95,-428.99"/>
<text text-anchor="middle" x="782.04" y="-465.8" font-family="Times,serif" font-size="14.00">okay wait</text>
<text text-anchor="middle" x="782.04" y="-450.8" font-family="Times,serif" font-size="14.00">elapsed</text>
</g>
<!-- exited -->
<g id="node8" class="node">
<title>exited</title>
<polygon fill="none" stroke="black" points="862.04,-327 771.04,-327 771.04,-291 862.04,-291 862.04,-327"/>
<text text-anchor="middle" x="816.54" y="-302.8" font-family="Times,serif" font-size="24.00">exited</text>
</g>
<!-- starting&#45;&gt;exited -->
<g id="edge10" class="edge">
<title>starting&#45;&gt;exited</title>
<path fill="none" stroke="black" d="M850.88,-494.74C854.25,-468.81 860.34,-418.22 862.54,-375 863.22,-361.68 868.46,-356.95 862.54,-345 860.53,-340.95 857.8,-337.23 854.67,-333.87"/>
<polygon fill="black" stroke="black" points="857.01,-331.27 847.29,-327.06 852.27,-336.41 857.01,-331.27"/>
<text text-anchor="middle" x="884.04" y="-407.3" font-family="Times,serif" font-size="14.00">exited</text>
</g>
<!-- terminating -->
<g id="node4" class="node">
<title>terminating</title>
<polygon fill="none" stroke="black" points="480.54,-327 320.54,-327 320.54,-291 480.54,-291 480.54,-327"/>
<text text-anchor="middle" x="400.54" y="-302.8" font-family="Times,serif" font-size="24.00">terminating</text>
</g>
<!-- running&#45;&gt;terminating -->
<g id="edge3" class="edge">
<title>running&#45;&gt;terminating</title>
<path fill="none" stroke="black" d="M505.04,-394.77C490.88,-389.65 476.15,-383.12 463.54,-375 446.91,-364.29 431.4,-348.4 419.93,-335.01"/>
<polygon fill="black" stroke="black" points="422.42,-332.53 413.34,-327.06 417.03,-336.99 422.42,-332.53"/>
<text text-anchor="middle" x="479.04" y="-356.3" font-family="Times,serif" font-size="14.00">stop</text>
</g>
<!-- backoff -->
<g id="node7" class="node">
<title>backoff</title>
<polygon fill="none" stroke="black" points="484.04,-123 379.04,-123 379.04,-87 484.04,-87 484.04,-123"/>
<text text-anchor="middle" x="431.54" y="-98.8" font-family="Times,serif" font-size="24.00">backoff</text>
</g>
<!-- running&#45;&gt;backoff -->
<g id="edge16" class="edge">
<title>running&#45;&gt;backoff</title>
<path fill="none" stroke="black" d="M558.52,-392.9C556.77,-379.63 555.61,-360.89 559.54,-345 571.17,-298.04 612.47,-289.01 597.54,-243 580.25,-189.73 568.01,-175.04 523.54,-141 514.62,-134.17 504.21,-128.54 493.67,-123.95"/>
<polygon fill="black" stroke="black" points="494.99,-120.7 484.41,-120.17 492.35,-127.18 494.99,-120.7"/>
<text text-anchor="middle" x="662.54" y="-261.8" font-family="Times,serif" font-size="14.00">exited</text>
<text text-anchor="middle" x="662.54" y="-246.8" font-family="Times,serif" font-size="14.00">(action &quot;restart&quot;)</text>
</g>
<!-- running&#45;&gt;exited -->
<g id="edge14" class="edge">
<title>running&#45;&gt;exited</title>
<path fill="none" stroke="black" d="M618.12,-407.18C650.51,-403.34 690.7,-394.6 721.54,-375 735.72,-365.99 731.53,-355.62 744.54,-345 750.52,-340.12 757.3,-335.71 764.24,-331.79"/>
<polygon fill="black" stroke="black" points="765.89,-334.88 773.08,-327.1 762.6,-328.7 765.89,-334.88"/>
<text text-anchor="middle" x="803.54" y="-363.8" font-family="Times,serif" font-size="14.00">exited</text>
<text text-anchor="middle" x="803.54" y="-348.8" font-family="Times,serif" font-size="14.00">(action &quot;ignore&quot;)</text>
</g>
<!-- running&#45;&gt;exited -->
<g id="edge15" class="edge">
<title>running&#45;&gt;exited</title>
<path fill="none" stroke="black" d="M560.25,-392.76C560.16,-377.92 562.64,-357.06 575.54,-345 601.62,-320.63 698.14,-313.18 760.84,-310.93"/>
<polygon fill="black" stroke="black" points="761.09,-314.43 770.97,-310.61 760.87,-307.43 761.09,-314.43"/>
<text text-anchor="middle" x="646.54" y="-363.8" font-family="Times,serif" font-size="14.00">exited</text>
<text text-anchor="middle" x="646.54" y="-348.8" font-family="Times,serif" font-size="14.00">(action &quot;shutdown&quot;)</text>
</g>
<!-- killing -->
<g id="node5" class="node">
<title>killing</title>
<polygon fill="none" stroke="black" points="188.54,-225 96.54,-225 96.54,-189 188.54,-189 188.54,-225"/>
<text text-anchor="middle" x="142.54" y="-200.8" font-family="Times,serif" font-size="24.00">killing</text>
</g>
<!-- terminating&#45;&gt;killing -->
<g id="edge4" class="edge">
<title>terminating&#45;&gt;killing</title>
<path fill="none" stroke="black" d="M320.32,-293.31C315.66,-292.51 311.04,-291.74 306.54,-291 252.02,-282.08 229.86,-303.12 183.54,-273 169.59,-263.93 159.5,-248.26 152.82,-234.59"/>
<polygon fill="black" stroke="black" points="155.85,-232.79 148.56,-225.1 149.47,-235.66 155.85,-232.79"/>
<text text-anchor="middle" x="237.54" y="-261.8" font-family="Times,serif" font-size="14.00">terminate time</text>
<text text-anchor="middle" x="237.54" y="-246.8" font-family="Times,serif" font-size="14.00">elapsed</text>
</g>
<!-- stopped -->
<g id="node6" class="node">
<title>stopped</title>
<polygon fill="none" stroke="black" points="401.54,-36 289.54,-36 289.54,0 401.54,0 401.54,-36"/>
<text text-anchor="middle" x="345.54" y="-11.8" font-family="Times,serif" font-size="24.00">stopped</text>
</g>
<!-- terminating&#45;&gt;stopped -->
<g id="edge5" class="edge">
<title>terminating&#45;&gt;stopped</title>
<path fill="none" stroke="black" d="M382.82,-290.99C359.15,-266.91 318.35,-220.29 302.54,-171 288.49,-127.22 311.29,-75.59 328.69,-45.17"/>
<polygon fill="black" stroke="black" points="331.78,-46.83 333.88,-36.44 325.76,-43.25 331.78,-46.83"/>
<text text-anchor="middle" x="358.04" y="-159.8" font-family="Times,serif" font-size="14.00">exited</text>
<text text-anchor="middle" x="358.04" y="-144.8" font-family="Times,serif" font-size="14.00">(not restarting)</text>
</g>
<!-- terminating&#45;&gt;backoff -->
<g id="edge7" class="edge">
<title>terminating&#45;&gt;backoff</title>
<path fill="none" stroke="black" d="M401.35,-290.92C402.65,-267.69 405.79,-224.92 412.54,-189 414.07,-180.84 415.56,-179.06 417.54,-171 420.59,-158.64 423.6,-144.87 426.06,-133.2"/>
<polygon fill="black" stroke="black" points="429.53,-133.67 428.13,-123.17 422.68,-132.25 429.53,-133.67"/>
<text text-anchor="middle" x="454.04" y="-210.8" font-family="Times,serif" font-size="14.00">exited</text>
<text text-anchor="middle" x="454.04" y="-195.8" font-family="Times,serif" font-size="14.00">(restarting)</text>
</g>
<!-- killing&#45;&gt;stopped -->
<g id="edge6" class="edge">
<title>killing&#45;&gt;stopped</title>
<path fill="none" stroke="black" d="M96.5,-188.99C46.12,-167.76 -23.47,-129.1 8.54,-87 40.64,-44.78 190.58,-28.41 279.28,-22.34"/>
<polygon fill="black" stroke="black" points="279.76,-25.82 289.51,-21.67 279.31,-18.84 279.76,-25.82"/>
<text text-anchor="middle" x="64.04" y="-108.8" font-family="Times,serif" font-size="14.00">exited</text>
<text text-anchor="middle" x="64.04" y="-93.8" font-family="Times,serif" font-size="14.00">(not restarting)</text>
</g>
<!-- killing&#45;&gt;stopped -->
<g id="edge19" class="edge">
<title>killing&#45;&gt;stopped</title>
<path fill="none" stroke="black" d="M142.54,-188.95C143.3,-175.02 146.17,-155.36 155.54,-141 187.08,-92.68 245.17,-59.59 288.85,-40.19"/>
<polygon fill="black" stroke="black" points="290.42,-43.33 298.21,-36.15 287.64,-36.9 290.42,-43.33"/>
<text text-anchor="middle" x="237.04" y="-108.8" font-family="Times,serif" font-size="14.00">kill time</text>
<text text-anchor="middle" x="237.04" y="-93.8" font-family="Times,serif" font-size="14.00">elapsed</text>
</g>
<!-- killing&#45;&gt;backoff -->
<g id="edge8" class="edge">
<title>killing&#45;&gt;backoff</title>
<path fill="none" stroke="black" d="M146.43,-188.94C150.83,-173.8 159.56,-152.37 175.54,-141 205.64,-119.58 302.96,-111.24 368.56,-108.01"/>
<polygon fill="black" stroke="black" points="368.97,-111.49 378.8,-107.53 368.64,-104.5 368.97,-111.49"/>
<text text-anchor="middle" x="217.04" y="-159.8" font-family="Times,serif" font-size="14.00">exited</text>
<text text-anchor="middle" x="217.04" y="-144.8" font-family="Times,serif" font-size="14.00">(restarting)</text>
</g>
<!-- stopped&#45;&gt;starting -->
<g id="edge11" class="edge">
<title>stopped&#45;&gt;starting</title>
<path fill="none" stroke="black" d="M401.55,-20.51C558.72,-25.5 992.54,-44.63 992.54,-104 992.54,-412 992.54,-412 992.54,-412 992.54,-453.25 952.19,-478.85 914.21,-493.81"/>
<polygon fill="black" stroke="black" points="912.77,-490.61 904.63,-497.39 915.22,-497.17 912.77,-490.61"/>
<text text-anchor="middle" x="1010.04" y="-254.3" font-family="Times,serif" font-size="14.00">start</text>
</g>
<!-- backoff&#45;&gt;starting -->
<g id="edge12" class="edge">
<title>backoff&#45;&gt;starting</title>
<path fill="none" stroke="black" d="M378.85,-106.73C350.24,-109.93 316.35,-118.72 294.54,-141 257.52,-178.83 267.54,-204.07 267.54,-257 267.54,-412 267.54,-412 267.54,-412 267.54,-463.71 629.66,-496.1 782.13,-507.45"/>
<polygon fill="black" stroke="black" points="782.07,-510.95 792.3,-508.19 782.59,-503.97 782.07,-510.95"/>
<text text-anchor="middle" x="285.04" y="-305.3" font-family="Times,serif" font-size="14.00">start</text>
</g>
<!-- backoff&#45;&gt;running -->
<g id="edge18" class="edge">
<title>backoff&#45;&gt;running</title>
<path fill="none" stroke="black" d="M449.47,-123.29C464.48,-138.93 485.09,-163.39 495.54,-189 509.75,-223.81 496.12,-236.6 505.54,-273 515.86,-312.88 535.22,-356.54 548.24,-383.6"/>
<polygon fill="black" stroke="black" points="545.2,-385.33 552.73,-392.78 551.49,-382.26 545.2,-385.33"/>
<text text-anchor="middle" x="549.54" y="-261.8" font-family="Times,serif" font-size="14.00">backoff time</text>
<text text-anchor="middle" x="549.54" y="-246.8" font-family="Times,serif" font-size="14.00">elapsed</text>
</g>
<!-- backoff&#45;&gt;stopped -->
<g id="edge17" class="edge">
<title>backoff&#45;&gt;stopped</title>
<path fill="none" stroke="black" d="M414.14,-86.8C401.55,-74.36 384.36,-57.36 370.33,-43.5"/>
<polygon fill="black" stroke="black" points="372.49,-40.72 362.92,-36.18 367.57,-45.69 372.49,-40.72"/>
<text text-anchor="middle" x="410.04" y="-57.8" font-family="Times,serif" font-size="14.00">stop</text>
</g>
<!-- exited&#45;&gt;starting -->
<g id="edge13" class="edge">
<title>exited&#45;&gt;starting</title>
<path fill="none" stroke="black" d="M854.1,-327.12C862.73,-332.11 871.45,-338.11 878.54,-345 896.42,-362.36 900.85,-368.99 907.54,-393 911.84,-408.41 912.41,-413.76 907.54,-429 900.58,-450.8 885.58,-471.77 872.44,-487.18"/>
<polygon fill="black" stroke="black" points="869.79,-484.9 865.8,-494.71 875.04,-489.53 869.79,-484.9"/>
<text text-anchor="middle" x="929.04" y="-407.3" font-family="Times,serif" font-size="14.00">start</text>
</g>
<!-- exited&#45;&gt;stopped -->
<g id="edge9" class="edge">
<title>exited&#45;&gt;stopped</title>
<path fill="none" stroke="black" d="M834.9,-290.66C858.34,-266.37 893.21,-221.56 869.54,-189 814.79,-113.68 540.15,-54.58 411.82,-30.61"/>
<polygon fill="black" stroke="black" points="412.19,-27.12 401.72,-28.74 410.92,-34 412.19,-27.12"/>
<text text-anchor="middle" x="865.04" y="-152.3" font-family="Times,serif" font-size="14.00">stop</text>
</g>
<!-- exited&#45;&gt;backoff -->
<g id="edge20" class="edge">
<title>exited&#45;&gt;backoff</title>
<path fill="none" stroke="black" d="M803.57,-290.89C776.3,-256.28 709.24,-178.1 633.54,-141 590.08,-119.7 535.8,-111.16 494.45,-107.82"/>
<polygon fill="black" stroke="black" points="494.46,-104.31 484.24,-107.08 493.96,-111.3 494.46,-104.31"/>
<text text-anchor="middle" x="804.54" y="-210.8" font-family="Times,serif" font-size="14.00">check failed</text>
<text text-anchor="middle" x="804.54" y="-195.8" font-family="Times,serif" font-size="14.00">(action &quot;restart&quot;)</text>
</g>
</g>
</svg>
