<?xml version="1.0" encoding="UTF-8" standalone="no"?>
<!DOCTYPE svg PUBLIC "-//W3C//DTD SVG 1.1//EN"
 "http://www.w3.org/Graphics/SVG/1.1/DTD/svg11.dtd">
<!-- Generated by graphviz version 2.43.0 (0)
 -->
<!-- Title: service_state_machine Pages: 1 -->
<svg width="1090pt" height="653pt"
 viewBox="0.00 0.00 1090.00 653.00" xmlns="http://www.w3.org/2000/svg" xmlns:xlink="http://www.w3.org/1999/xlink">
<g id="graph0" class="graph" transform="scale(1 1) rotate(0) translate(4 649)">
<title>service_state_machine</title>
<polygon fill="white" stroke="transparent" points="-4,4 -4,-649 1086,-649 1086,4 -4,4"/>
<!-- initial -->
<g id="node1" class="node">
<title>initial</title>
<polygon fill="none" stroke="black" stroke-width="3" points="778,-645 692,-645 692,-609 778,-609 778,-645"/>
<text text-anchor="middle" x="735" y="-620.8" font-family="Times,serif" font-size="24.00">initial</text>
</g>
<!-- starting -->
<g id="node5" class="node">
<title>starting</title>
<polygon fill="none" stroke="black" points="791,-558 679,-558 679,-522 791,-522 791,-558"/>
<text text-anchor="middle" x="735" y="-533.8" font-family="Times,serif" font-size="24.00">starting</text>
</g>
<!-- initial&#45;&gt;starting -->
<g id="edge5" class="edge">
<title>initial&#45;&gt;starting</title>
<path fill="none" stroke="black" d="M735,-608.8C735,-597.16 735,-581.55 735,-568.24"/>
<polygon fill="black" stroke="black" points="738.5,-568.18 735,-558.18 731.5,-568.18 738.5,-568.18"/>
<text text-anchor="middle" x="752.5" y="-579.8" font-family="Times,serif" font-size="14.00">start</text>
</g>
<!-- backoff -->
<g id="node2" class="node">
<title>backoff</title>
<polygon fill="none" stroke="black" points="277.5,-384 172.5,-384 172.5,-348 277.5,-348 277.5,-384"/>
<text text-anchor="middle" x="225" y="-359.8" font-family="Times,serif" font-size="24.00">backoff</text>
</g>
<!-- stopped -->
<g id="node3" class="node">
<title>stopped</title>
<polygon fill="none" stroke="black" points="716,-36 604,-36 604,0 716,0 716,-36"/>
<text text-anchor="middle" x="660" y="-11.8" font-family="Times,serif" font-size="24.00">stopped</text>
</g>
<!-- backoff&#45;&gt;stopped -->
<g id="edge16" class="edge">
<title>backoff&#45;&gt;stopped</title>
<path fill="none" stroke="black" d="M172.25,-355.94C105.74,-342.99 0,-316.64 0,-280 0,-280 0,-280 0,-104 0,-44.59 426.09,-25.78 593.56,-20.67"/>
<polygon fill="black" stroke="black" points="593.84,-24.17 603.73,-20.37 593.63,-17.17 593.84,-24.17"/>
<text text-anchor="middle" x="15.5" y="-188.3" font-family="Times,serif" font-size="14.00">stop</text>
</g>
<!-- backoff&#45;&gt;starting -->
<g id="edge1" class="edge">
<title>backoff&#45;&gt;starting</title>
<path fill="none" stroke="black" d="M240.46,-384.14C268.86,-414.36 332.76,-476.51 401,-504 448.05,-522.95 585.43,-532.31 668.62,-536.36"/>
<polygon fill="black" stroke="black" points="668.58,-539.86 678.74,-536.84 668.91,-532.87 668.58,-539.86"/>
<text text-anchor="middle" x="356.5" y="-449.3" font-family="Times,serif" font-size="14.00">start</text>
</g>
<!-- running -->
<g id="node6" class="node">
<title>running</title>
<polygon fill="none" stroke="black" points="622.5,-297 509.5,-297 509.5,-261 622.5,-261 622.5,-297"/>
<text text-anchor="middle" x="566" y="-272.8" font-family="Times,serif" font-size="24.00">running</text>
</g>
<!-- backoff&#45;&gt;running -->
<g id="edge17" class="edge">
<title>backoff&#45;&gt;running</title>
<path fill="none" stroke="black" d="M277.53,-360.03C313.8,-355.32 362.59,-346.42 403,-330 414.31,-325.41 414.81,-319.88 426,-315 449.11,-304.92 475.68,-297.35 499.42,-291.89"/>
<polygon fill="black" stroke="black" points="500.4,-295.25 509.41,-289.67 498.88,-288.42 500.4,-295.25"/>
<text text-anchor="middle" x="498" y="-318.8" font-family="Times,serif" font-size="14.00">backoffTimeElapsed</text>
</g>
<!-- stopped&#45;&gt;starting -->
<g id="edge2" class="edge">
<title>stopped&#45;&gt;starting</title>
<path fill="none" stroke="black" d="M716.27,-19.78C823.61,-22.79 1047,-37.1 1047,-104 1047,-454 1047,-454 1047,-454 1047,-504.53 892.75,-526.02 801.16,-534.33"/>
<polygon fill="black" stroke="black" points="800.8,-530.85 791.14,-535.21 801.41,-537.83 800.8,-530.85"/>
<text text-anchor="middle" x="1064.5" y="-275.3" font-family="Times,serif" font-size="14.00">start</text>
</g>
<!-- exited -->
<g id="node4" class="node">
<title>exited</title>
<polygon fill="none" stroke="black" points="838.5,-471 747.5,-471 747.5,-435 838.5,-435 838.5,-471"/>
<text text-anchor="middle" x="793" y="-446.8" font-family="Times,serif" font-size="24.00">exited</text>
</g>
<!-- exited&#45;&gt;backoff -->
<g id="edge23" class="edge">
<title>exited&#45;&gt;backoff</title>
<path fill="none" stroke="black" d="M747.27,-450.77C699.6,-448.2 623.4,-440.4 562,-417 550.6,-412.65 550.49,-406.12 539,-402 494.22,-385.94 365.96,-375.57 287.91,-370.56"/>
<polygon fill="black" stroke="black" points="287.91,-367.05 277.71,-369.92 287.47,-374.04 287.91,-367.05"/>
<text text-anchor="middle" x="670.5" y="-405.8" font-family="Times,serif" font-size="14.00">checkFailed (action==restart)</text>
</g>
<!-- exited&#45;&gt;stopped -->
<g id="edge4" class="edge">
<title>exited&#45;&gt;stopped</title>
<path fill="none" stroke="black" d="M838.65,-452.49C899.87,-450.49 1001,-436.63 1001,-367 1001,-367 1001,-367 1001,-104 1001,-48.02 825.78,-28.62 726.55,-22.12"/>
<polygon fill="black" stroke="black" points="726.51,-18.61 716.31,-21.48 726.07,-25.6 726.51,-18.61"/>
<text text-anchor="middle" x="1016.5" y="-231.8" font-family="Times,serif" font-size="14.00">stop</text>
</g>
<!-- exited&#45;&gt;starting -->
<g id="edge3" class="edge">
<title>exited&#45;&gt;starting</title>
<path fill="none" stroke="black" d="M753.43,-471.01C746.48,-475.8 740.15,-481.74 736,-489 732.14,-495.73 730.86,-503.86 730.82,-511.59"/>
<polygon fill="black" stroke="black" points="727.33,-511.93 731.41,-521.7 734.32,-511.52 727.33,-511.93"/>
<text text-anchor="middle" x="753.5" y="-492.8" font-family="Times,serif" font-size="14.00">start</text>
</g>
<!-- starting&#45;&gt;exited -->
<g id="edge7" class="edge">
<title>starting&#45;&gt;exited</title>
<path fill="none" stroke="black" d="M755.51,-521.7C761,-516.41 766.62,-510.3 771,-504 775.94,-496.88 780.16,-488.47 783.54,-480.6"/>
<polygon fill="black" stroke="black" points="786.9,-481.64 787.37,-471.05 780.4,-479.03 786.9,-481.64"/>
<text text-anchor="middle" x="802.5" y="-492.8" font-family="Times,serif" font-size="14.00">exited</text>
</g>
<!-- starting&#45;&gt;running -->
<g id="edge6" class="edge">
<title>starting&#45;&gt;running</title>
<path fill="none" stroke="black" d="M678.94,-536.25C603.64,-529.19 472.33,-504.28 412,-417 408.21,-411.52 408.39,-407.61 412,-402 453.75,-337.1 528.25,-394.9 570,-330 574.32,-323.28 575.03,-314.95 574.16,-307.03"/>
<polygon fill="black" stroke="black" points="577.57,-306.21 572.28,-297.02 570.69,-307.5 577.57,-306.21"/>
<text text-anchor="middle" x="473.5" y="-405.8" font-family="Times,serif" font-size="14.00">okayWaitElapsed</text>
</g>
<!-- running&#45;&gt;backoff -->
<g id="edge10" class="edge">
<title>running&#45;&gt;backoff</title>
<path fill="none" stroke="black" d="M509.31,-281.81C417.55,-285.32 244.79,-294.59 226,-315 220.46,-321.02 218.86,-329.38 219.05,-337.54"/>
<polygon fill="black" stroke="black" points="215.58,-338 220.1,-347.59 222.55,-337.28 215.58,-338"/>
<text text-anchor="middle" x="314.5" y="-318.8" font-family="Times,serif" font-size="14.00">exited (action==restart)</text>
</g>
<!-- running&#45;&gt;exited -->
<g id="edge8" class="edge">
<title>running&#45;&gt;exited</title>
<path fill="none" stroke="black" d="M581.87,-297.02C586.48,-302.5 591.28,-308.77 595,-315 611.98,-343.41 596.66,-363.97 623,-384 678.56,-426.24 725.9,-356.7 779,-402 785.63,-407.66 789.25,-416.17 791.19,-424.58"/>
<polygon fill="black" stroke="black" points="787.75,-425.27 792.8,-434.59 794.66,-424.16 787.75,-425.27"/>
<text text-anchor="middle" x="709.5" y="-362.3" font-family="Times,serif" font-size="14.00">exited (action==ignore)</text>
</g>
<!-- running&#45;&gt;exited -->
<g id="edge9" class="edge">
<title>running&#45;&gt;exited</title>
<path fill="none" stroke="black" d="M622.61,-289.03C683.57,-300.03 774.71,-320.58 796,-348 812.81,-369.65 808.64,-402.18 802.45,-425.08"/>
<polygon fill="black" stroke="black" points="799.04,-424.27 799.53,-434.85 805.75,-426.27 799.04,-424.27"/>
<text text-anchor="middle" x="884.5" y="-362.3" font-family="Times,serif" font-size="14.00">exited (action==halt)</text>
</g>
<!-- terminating -->
<g id="node7" class="node">
<title>terminating</title>
<polygon fill="none" stroke="black" points="646,-210 486,-210 486,-174 646,-174 646,-210"/>
<text text-anchor="middle" x="566" y="-185.8" font-family="Times,serif" font-size="24.00">terminating</text>
</g>
<!-- running&#45;&gt;terminating -->
<g id="edge15" class="edge">
<title>running&#45;&gt;terminating</title>
<path fill="none" stroke="black" d="M566,-260.8C566,-249.16 566,-233.55 566,-220.24"/>
<polygon fill="black" stroke="black" points="569.5,-220.18 566,-210.18 562.5,-220.18 569.5,-220.18"/>
<text text-anchor="middle" x="581.5" y="-231.8" font-family="Times,serif" font-size="14.00">stop</text>
</g>
<!-- checkTerminating -->
<g id="node9" class="node">
<title>checkTerminating</title>
<polygon fill="none" stroke="black" points="285,-210 49,-210 49,-174 285,-174 285,-210"/>
<text text-anchor="middle" x="167" y="-185.8" font-family="Times,serif" font-size="24.00">checkTerminating</text>
</g>
<!-- running&#45;&gt;checkTerminating -->
<g id="edge22" class="edge">
<title>running&#45;&gt;checkTerminating</title>
<path fill="none" stroke="black" d="M509.3,-271.07C464.43,-265.09 400.33,-255.46 345,-243 321.95,-237.81 316.72,-234.47 294,-228 276.37,-222.98 257.33,-217.67 239.49,-212.75"/>
<polygon fill="black" stroke="black" points="240.29,-209.34 229.72,-210.06 238.43,-216.09 240.29,-209.34"/>
<text text-anchor="middle" x="453.5" y="-231.8" font-family="Times,serif" font-size="14.00">checkFailed (action==restart)</text>
</g>
<!-- terminating&#45;&gt;stopped -->
<g id="edge11" class="edge">
<title>terminating&#45;&gt;stopped</title>
<path fill="none" stroke="black" d="M646.22,-179.65C672.9,-174.12 697.91,-166.37 706,-156 718.62,-139.84 760.22,-179.88 698,-54 696.12,-50.2 693.64,-46.61 690.85,-43.28"/>
<polygon fill="black" stroke="black" points="693.34,-40.82 683.89,-36.02 688.28,-45.66 693.34,-40.82"/>
<text text-anchor="middle" x="750.5" y="-101.3" font-family="Times,serif" font-size="14.00">exited</text>
</g>
<!-- killing -->
<g id="node8" class="node">
<title>killing</title>
<polygon fill="none" stroke="black" points="588,-123 496,-123 496,-87 588,-87 588,-123"/>
<text text-anchor="middle" x="542" y="-98.8" font-family="Times,serif" font-size="24.00">killing</text>
</g>
<!-- terminating&#45;&gt;killing -->
<g id="edge18" class="edge">
<title>terminating&#45;&gt;killing</title>
<path fill="none" stroke="black" d="M551.97,-173.82C548.36,-168.43 544.94,-162.25 543,-156 540.76,-148.79 539.93,-140.7 539.81,-133.17"/>
<polygon fill="black" stroke="black" points="543.31,-133.11 540.03,-123.04 536.31,-132.96 543.31,-133.11"/>
<text text-anchor="middle" x="624.5" y="-144.8" font-family="Times,serif" font-size="14.00">terminateTimeElapsed</text>
</g>
<!-- killing&#45;&gt;stopped -->
<g id="edge12" class="edge">
<title>killing&#45;&gt;stopped</title>
<path fill="none" stroke="black" d="M588.12,-95.28C605.46,-90.07 624.28,-81.86 638,-69 644.66,-62.75 649.43,-54.13 652.78,-45.8"/>
<polygon fill="black" stroke="black" points="656.1,-46.92 656.09,-36.32 649.49,-44.61 656.1,-46.92"/>
<text text-anchor="middle" x="671.5" y="-57.8" font-family="Times,serif" font-size="14.00">exited</text>
</g>
<!-- killing&#45;&gt;stopped -->
<g id="edge20" class="edge">
<title>killing&#45;&gt;stopped</title>
<path fill="none" stroke="black" d="M525.21,-86.7C517.4,-76.53 511.35,-63.78 519,-54 528.6,-41.72 561.81,-33.14 593.59,-27.55"/>
<polygon fill="black" stroke="black" points="594.54,-30.94 603.82,-25.84 593.38,-24.03 594.54,-30.94"/>
<text text-anchor="middle" x="576.5" y="-57.8" font-family="Times,serif" font-size="14.00">killTimeElapsed</text>
</g>
<!-- checkTerminating&#45;&gt;backoff -->
<g id="edge13" class="edge">
<title>checkTerminating&#45;&gt;backoff</title>
<path fill="none" stroke="black" d="M164.69,-210.26C161.9,-237.51 159.9,-291.4 181,-330 183.17,-333.96 185.98,-337.63 189.15,-340.99"/>
<polygon fill="black" stroke="black" points="186.81,-343.59 196.52,-347.83 191.57,-338.46 186.81,-343.59"/>
<text text-anchor="middle" x="191.5" y="-275.3" font-family="Times,serif" font-size="14.00">exited</text>
</g>
<!-- checkKilling -->
<g id="node10" class="node">
<title>checkKilling</title>
<polygon fill="none" stroke="black" points="396.5,-123 229.5,-123 229.5,-87 396.5,-87 396.5,-123"/>
<text text-anchor="middle" x="313" y="-98.8" font-family="Times,serif" font-size="24.00">checkKilling</text>
</g>
<!-- checkTerminating&#45;&gt;checkKilling -->
<g id="edge19" class="edge">
<title>checkTerminating&#45;&gt;checkKilling</title>
<path fill="none" stroke="black" d="M145.28,-173.58C135.45,-163.6 127.7,-151.1 136,-141 147.18,-127.39 182.68,-118.99 218.98,-113.84"/>
<polygon fill="black" stroke="black" points="219.77,-117.27 229.22,-112.47 218.84,-110.33 219.77,-117.27"/>
<text text-anchor="middle" x="217.5" y="-144.8" font-family="Times,serif" font-size="14.00">terminateTimeElapsed</text>
</g>
<!-- checkKilling&#45;&gt;backoff -->
<g id="edge14" class="edge">
<title>checkKilling&#45;&gt;backoff</title>
<path fill="none" stroke="black" d="M314.71,-123.27C315.97,-145.85 314.69,-185.43 294,-210 279.06,-227.75 261.15,-211.35 245,-228 216.62,-257.25 222.53,-274.77 216,-315 214.79,-322.46 215.4,-330.52 216.74,-337.95"/>
<polygon fill="black" stroke="black" points="213.38,-338.93 219.02,-347.9 220.2,-337.37 213.38,-338.93"/>
<text text-anchor="middle" x="267.5" y="-231.8" font-family="Times,serif" font-size="14.00">exited</text>
</g>
<!-- checkKilling&#45;&gt;stopped -->
<g id="edge21" class="edge">
<title>checkKilling&#45;&gt;stopped</title>
<path fill="none" stroke="black" d="M335.99,-86.83C352.2,-75.62 374.88,-61.69 397,-54 461.48,-31.58 539.44,-23.39 593.67,-20.47"/>
<polygon fill="black" stroke="black" points="594.03,-23.95 603.85,-19.96 593.69,-16.96 594.03,-23.95"/>
<text text-anchor="middle" x="454.5" y="-57.8" font-family="Times,serif" font-size="14.00">killTimeElapsed</text>
</g>
</g>
</svg>
