<?xml version="1.0" encoding="UTF-8" standalone="no"?>
<!DOCTYPE svg PUBLIC "-//W3C//DTD SVG 1.1//EN"
 "http://www.w3.org/Graphics/SVG/1.1/DTD/svg11.dtd">
<!-- Generated by graphviz version 2.43.0 (0)
 -->
<!-- Title: service_state_machine Pages: 1 -->
<svg width="1008pt" height="626pt"
 viewBox="0.00 0.00 1007.54 626.00" xmlns="http://www.w3.org/2000/svg" xmlns:xlink="http://www.w3.org/1999/xlink">
<g id="graph0" class="graph" transform="scale(1 1) rotate(0) translate(4 622)">
<title>service_state_machine</title>
<polygon fill="white" stroke="transparent" points="-4,4 -4,-622 1003.54,-622 1003.54,4 -4,4"/>
<!-- initial -->
<g id="node1" class="node">
<title>initial</title>
<polygon fill="none" stroke="black" stroke-width="3" points="863.54,-618 777.54,-618 777.54,-582 863.54,-582 863.54,-618"/>
<text text-anchor="middle" x="820.54" y="-593.8" font-family="Times,serif" font-size="24.00">initial</text>
</g>
<!-- starting -->
<g id="node2" class="node">
<title>starting</title>
<polygon fill="none" stroke="black" points="876.54,-531 764.54,-531 764.54,-495 876.54,-495 876.54,-531"/>
<text text-anchor="middle" x="820.54" y="-506.8" font-family="Times,serif" font-size="24.00">starting</text>
</g>
<!-- initial&#45;&gt;starting -->
<g id="edge1" class="edge">
<title>initial&#45;&gt;starting</title>
<path fill="none" stroke="black" d="M820.54,-581.8C820.54,-570.16 820.54,-554.55 820.54,-541.24"/>
<polygon fill="black" stroke="black" points="824.04,-541.18 820.54,-531.18 817.04,-541.18 824.04,-541.18"/>
<text text-anchor="middle" x="838.04" y="-552.8" font-family="Times,serif" font-size="14.00">start</text>
</g>
<!-- running -->
<g id="node3" class="node">
<title>running</title>
<polygon fill="none" stroke="black" points="633.04,-429 520.04,-429 520.04,-393 633.04,-393 633.04,-429"/>
<text text-anchor="middle" x="576.54" y="-404.8" font-family="Times,serif" font-size="24.00">running</text>
</g>
<!-- starting&#45;&gt;running -->
<g id="edge2" class="edge">
<title>starting&#45;&gt;running</title>
<path fill="none" stroke="black" d="M778.87,-494.92C736.94,-477.74 672.21,-451.21 627.3,-432.8"/>
<polygon fill="black" stroke="black" points="628.62,-429.56 618.04,-429.01 625.96,-436.04 628.62,-429.56"/>
<text text-anchor="middle" x="770.04" y="-465.8" font-family="Times,serif" font-size="14.00">okay wait</text>
<text text-anchor="middle" x="770.04" y="-450.8" font-family="Times,serif" font-size="14.00">elapsed</text>
</g>
<!-- exited -->
<g id="node8" class="node">
<title>exited</title>
<polygon fill="none" stroke="black" points="848.04,-327 757.04,-327 757.04,-291 848.04,-291 848.04,-327"/>
<text text-anchor="middle" x="802.54" y="-302.8" font-family="Times,serif" font-size="24.00">exited</text>
</g>
<!-- starting&#45;&gt;exited -->
<g id="edge10" class="edge">
<title>starting&#45;&gt;exited</title>
<path fill="none" stroke="black" d="M823.04,-494.75C826.66,-468.82 833.18,-418.24 835.54,-375 836.27,-361.69 840.46,-357.39 835.54,-345 834.17,-341.54 832.27,-338.22 830.07,-335.1"/>
<polygon fill="black" stroke="black" points="832.76,-332.85 823.71,-327.34 827.34,-337.29 832.76,-332.85"/>
<text text-anchor="middle" x="857.04" y="-407.3" font-family="Times,serif" font-size="14.00">exited</text>
</g>
<!-- terminating -->
<g id="node4" class="node">
<title>terminating</title>
<polygon fill="none" stroke="black" points="480.54,-327 320.54,-327 320.54,-291 480.54,-291 480.54,-327"/>
<text text-anchor="middle" x="400.54" y="-302.8" font-family="Times,serif" font-size="24.00">terminating</text>
</g>
<!-- running&#45;&gt;terminating -->
<g id="edge3" class="edge">
<title>running&#45;&gt;terminating</title>
<path fill="none" stroke="black" d="M519.85,-398.41C501.06,-393.05 480.61,-385.48 463.54,-375 446.68,-364.65 431.17,-348.76 419.76,-335.29"/>
<polygon fill="black" stroke="black" points="422.25,-332.8 413.21,-327.28 416.83,-337.23 422.25,-332.8"/>
<text text-anchor="middle" x="479.04" y="-356.3" font-family="Times,serif" font-size="14.00">stop</text>
</g>
<!-- backoff -->
<g id="node7" class="node">
<title>backoff</title>
<polygon fill="none" stroke="black" points="484.04,-123 379.04,-123 379.04,-87 484.04,-87 484.04,-123"/>
<text text-anchor="middle" x="431.54" y="-98.8" font-family="Times,serif" font-size="24.00">backoff</text>
</g>
<!-- running&#45;&gt;backoff -->
<g id="edge16" class="edge">
<title>running&#45;&gt;backoff</title>
<path fill="none" stroke="black" d="M575.37,-392.92C575.03,-387.22 574.71,-380.84 574.54,-375 574.16,-361.67 572.49,-358.17 574.54,-345 581.7,-299.08 611.89,-287.2 597.54,-243 580.25,-189.73 568.01,-175.04 523.54,-141 514.62,-134.17 504.21,-128.54 493.67,-123.95"/>
<polygon fill="black" stroke="black" points="494.99,-120.7 484.41,-120.17 492.35,-127.18 494.99,-120.7"/>
<text text-anchor="middle" x="662.54" y="-261.8" font-family="Times,serif" font-size="14.00">exited</text>
<text text-anchor="middle" x="662.54" y="-246.8" font-family="Times,serif" font-size="14.00">(action &quot;restart&quot;)</text>
</g>
<!-- running&#45;&gt;exited -->
<g id="edge14" class="edge">
<title>running&#45;&gt;exited</title>
<path fill="none" stroke="black" d="M633.18,-400.8C653.76,-395.58 676.41,-387.47 694.54,-375 708.38,-365.48 704.2,-355.22 717.54,-345 726.56,-338.09 737.13,-332.32 747.69,-327.59"/>
<polygon fill="black" stroke="black" points="749.08,-330.8 756.94,-323.7 746.36,-324.35 749.08,-330.8"/>
<text text-anchor="middle" x="776.54" y="-363.8" font-family="Times,serif" font-size="14.00">exited</text>
<text text-anchor="middle" x="776.54" y="-348.8" font-family="Times,serif" font-size="14.00">(action &quot;ignore&quot;)</text>
</g>
<!-- running&#45;&gt;exited -->
<g id="edge15" class="edge">
<title>running&#45;&gt;exited</title>
<path fill="none" stroke="black" d="M575.31,-392.82C575.25,-378.02 577.75,-357.18 590.54,-345 612.47,-324.11 691.89,-315.64 747.03,-312.24"/>
<polygon fill="black" stroke="black" points="747.25,-315.73 757.03,-311.66 746.84,-308.74 747.25,-315.73"/>
<text text-anchor="middle" x="640.54" y="-363.8" font-family="Times,serif" font-size="14.00">exited</text>
<text text-anchor="middle" x="640.54" y="-348.8" font-family="Times,serif" font-size="14.00">(action &quot;halt&quot;)</text>
</g>
<!-- killing -->
<g id="node5" class="node">
<title>killing</title>
<polygon fill="none" stroke="black" points="188.54,-225 96.54,-225 96.54,-189 188.54,-189 188.54,-225"/>
<text text-anchor="middle" x="142.54" y="-200.8" font-family="Times,serif" font-size="24.00">killing</text>
</g>
<!-- terminating&#45;&gt;killing -->
<g id="edge4" class="edge">
<title>terminating&#45;&gt;killing</title>
<path fill="none" stroke="black" d="M320.32,-293.31C315.66,-292.51 311.04,-291.74 306.54,-291 252.02,-282.08 229.86,-303.12 183.54,-273 169.59,-263.93 159.5,-248.26 152.82,-234.59"/>
<polygon fill="black" stroke="black" points="155.85,-232.79 148.56,-225.1 149.47,-235.66 155.85,-232.79"/>
<text text-anchor="middle" x="237.54" y="-261.8" font-family="Times,serif" font-size="14.00">terminate time</text>
<text text-anchor="middle" x="237.54" y="-246.8" font-family="Times,serif" font-size="14.00">elapsed</text>
</g>
<!-- stopped -->
<g id="node6" class="node">
<title>stopped</title>
<polygon fill="none" stroke="black" points="401.54,-36 289.54,-36 289.54,0 401.54,0 401.54,-36"/>
<text text-anchor="middle" x="345.54" y="-11.8" font-family="Times,serif" font-size="24.00">stopped</text>
</g>
<!-- terminating&#45;&gt;stopped -->
<g id="edge5" class="edge">
<title>terminating&#45;&gt;stopped</title>
<path fill="none" stroke="black" d="M382.82,-290.99C359.15,-266.91 318.35,-220.29 302.54,-171 288.49,-127.22 311.29,-75.59 328.69,-45.17"/>
<polygon fill="black" stroke="black" points="331.78,-46.83 333.88,-36.44 325.76,-43.25 331.78,-46.83"/>
<text text-anchor="middle" x="358.04" y="-159.8" font-family="Times,serif" font-size="14.00">exited</text>
<text text-anchor="middle" x="358.04" y="-144.8" font-family="Times,serif" font-size="14.00">(not restarting)</text>
</g>
<!-- terminating&#45;&gt;backoff -->
<g id="edge7" class="edge">
<title>terminating&#45;&gt;backoff</title>
<path fill="none" stroke="black" d="M401.35,-290.92C402.65,-267.69 405.79,-224.92 412.54,-189 414.07,-180.84 415.56,-179.06 417.54,-171 420.59,-158.64 423.6,-144.87 426.06,-133.2"/>
<polygon fill="black" stroke="black" points="429.53,-133.67 428.13,-123.17 422.68,-132.25 429.53,-133.67"/>
<text text-anchor="middle" x="454.04" y="-210.8" font-family="Times,serif" font-size="14.00">exited</text>
<text text-anchor="middle" x="454.04" y="-195.8" font-family="Times,serif" font-size="14.00">(restarting)</text>
</g>
<!-- killing&#45;&gt;stopped -->
<g id="edge6" class="edge">
<title>killing&#45;&gt;stopped</title>
<path fill="none" stroke="black" d="M96.5,-188.99C46.12,-167.76 -23.47,-129.1 8.54,-87 40.64,-44.78 190.58,-28.41 279.28,-22.34"/>
<polygon fill="black" stroke="black" points="279.76,-25.82 289.51,-21.67 279.31,-18.84 279.76,-25.82"/>
<text text-anchor="middle" x="64.04" y="-108.8" font-family="Times,serif" font-size="14.00">exited</text>
<text text-anchor="middle" x="64.04" y="-93.8" font-family="Times,serif" font-size="14.00">(not restarting)</text>
</g>
<!-- killing&#45;&gt;stopped -->
<g id="edge19" class="edge">
<title>killing&#45;&gt;stopped</title>
<path fill="none" stroke="black" d="M142.54,-188.95C143.3,-175.02 146.17,-155.36 155.54,-141 187.08,-92.68 245.17,-59.59 288.85,-40.19"/>
<polygon fill="black" stroke="black" points="290.42,-43.33 298.21,-36.15 287.64,-36.9 290.42,-43.33"/>
<text text-anchor="middle" x="237.04" y="-108.8" font-family="Times,serif" font-size="14.00">kill time</text>
<text text-anchor="middle" x="237.04" y="-93.8" font-family="Times,serif" font-size="14.00">elapsed</text>
</g>
<!-- killing&#45;&gt;backoff -->
<g id="edge8" class="edge">
<title>killing&#45;&gt;backoff</title>
<path fill="none" stroke="black" d="M146.43,-188.94C150.83,-173.8 159.56,-152.37 175.54,-141 205.64,-119.58 302.96,-111.24 368.56,-108.01"/>
<polygon fill="black" stroke="black" points="368.97,-111.49 378.8,-107.53 368.64,-104.5 368.97,-111.49"/>
<text text-anchor="middle" x="217.04" y="-159.8" font-family="Times,serif" font-size="14.00">exited</text>
<text text-anchor="middle" x="217.04" y="-144.8" font-family="Times,serif" font-size="14.00">(restarting)</text>
</g>
<!-- stopped&#45;&gt;starting -->
<g id="edge11" class="edge">
<title>stopped&#45;&gt;starting</title>
<path fill="none" stroke="black" d="M401.57,-20.85C553.94,-26.63 964.54,-47.46 964.54,-104 964.54,-412 964.54,-412 964.54,-412 964.54,-453.25 924.19,-478.85 886.21,-493.81"/>
<polygon fill="black" stroke="black" points="884.77,-490.61 876.63,-497.39 887.22,-497.17 884.77,-490.61"/>
<text text-anchor="middle" x="982.04" y="-254.3" font-family="Times,serif" font-size="14.00">start</text>
</g>
<!-- backoff&#45;&gt;starting -->
<g id="edge12" class="edge">
<title>backoff&#45;&gt;starting</title>
<path fill="none" stroke="black" d="M378.85,-106.73C350.24,-109.93 316.35,-118.72 294.54,-141 257.52,-178.83 267.54,-204.07 267.54,-257 267.54,-412 267.54,-412 267.54,-412 267.54,-460.95 607.38,-494.61 754.24,-506.87"/>
<polygon fill="black" stroke="black" points="754.22,-510.38 764.47,-507.71 754.8,-503.4 754.22,-510.38"/>
<text text-anchor="middle" x="285.04" y="-305.3" font-family="Times,serif" font-size="14.00">start</text>
</g>
<!-- backoff&#45;&gt;running -->
<g id="edge18" class="edge">
<title>backoff&#45;&gt;running</title>
<path fill="none" stroke="black" d="M449.47,-123.29C464.48,-138.93 485.09,-163.39 495.54,-189 509.75,-223.81 494.49,-237.06 505.54,-273 518.15,-314 542.76,-357.31 559.43,-384"/>
<polygon fill="black" stroke="black" points="556.65,-386.15 564.96,-392.71 562.56,-382.39 556.65,-386.15"/>
<text text-anchor="middle" x="549.54" y="-261.8" font-family="Times,serif" font-size="14.00">backoff time</text>
<text text-anchor="middle" x="549.54" y="-246.8" font-family="Times,serif" font-size="14.00">elapsed</text>
</g>
<!-- backoff&#45;&gt;stopped -->
<g id="edge17" class="edge">
<title>backoff&#45;&gt;stopped</title>
<path fill="none" stroke="black" d="M414.14,-86.8C401.55,-74.36 384.36,-57.36 370.33,-43.5"/>
<polygon fill="black" stroke="black" points="372.49,-40.72 362.92,-36.18 367.57,-45.69 372.49,-40.72"/>
<text text-anchor="middle" x="410.04" y="-57.8" font-family="Times,serif" font-size="14.00">stop</text>
</g>
<!-- exited&#45;&gt;starting -->
<g id="edge13" class="edge">
<title>exited&#45;&gt;starting</title>
<path fill="none" stroke="black" d="M830.65,-327.02C837.97,-332.23 845.48,-338.36 851.54,-345 868.18,-363.25 873.1,-369.16 879.54,-393 883.72,-408.45 884.41,-413.76 879.54,-429 872.58,-450.8 857.58,-471.77 844.44,-487.18"/>
<polygon fill="black" stroke="black" points="841.79,-484.9 837.8,-494.71 847.04,-489.53 841.79,-484.9"/>
<text text-anchor="middle" x="901.04" y="-407.3" font-family="Times,serif" font-size="14.00">start</text>
</g>
<!-- exited&#45;&gt;stopped -->
<g id="edge9" class="edge">
<title>exited&#45;&gt;stopped</title>
<path fill="none" stroke="black" d="M822.58,-290.88C848.25,-266.86 886.69,-222.36 862.54,-189 808.74,-114.67 538.94,-55.27 411.9,-30.93"/>
<polygon fill="black" stroke="black" points="412.38,-27.46 401.9,-29.03 411.07,-34.34 412.38,-27.46"/>
<text text-anchor="middle" x="859.04" y="-152.3" font-family="Times,serif" font-size="14.00">stop</text>
</g>
<!-- exited&#45;&gt;backoff -->
<g id="edge20" class="edge">
<title>exited&#45;&gt;backoff</title>
<path fill="none" stroke="black" d="M791.16,-290.98C766.84,-256.18 706.1,-177.12 633.54,-141 590.22,-119.43 535.93,-110.9 494.54,-107.64"/>
<polygon fill="black" stroke="black" points="494.53,-104.13 484.31,-106.92 494.04,-111.12 494.53,-104.13"/>
<text text-anchor="middle" x="797.54" y="-210.8" font-family="Times,serif" font-size="14.00">check failed</text>
<text text-anchor="middle" x="797.54" y="-195.8" font-family="Times,serif" font-size="14.00">(action &quot;restart&quot;)</text>
</g>
</g>
</svg>
